USFL
nRows=136
nColumns=2
inDegrees=yes
endheader
time	med_gas_r	
2.87482	 31.028646	
2.93731	 31.069944	
2.99981	 31.084742	
3.0623	 31.086991	
3.1248	 31.107531	
3.1873	 31.108972	
3.24979	 31.111388	
3.31229	 31.120296	
3.37478	 31.187836	
3.43728	 31.188891	
3.49978	 31.206514	
3.56227	 31.189950	
3.62477	 31.170761	
3.68726	 31.155626	
3.74976	 31.140661	
3.81226	 31.118590	
3.87475	 31.267176	
3.93725	 31.171448	
3.99974	 31.218644	
4.06224	 31.013012	
4.12474	 27.015897	
4.18723	 26.959560	
4.24973	 26.853786	
4.31222	 24.206173	
4.37472	 24.186908	
4.43722	 24.338630	
4.49971	 24.424856	
4.56221	 24.404967	
4.6247	 24.472528	
4.6872	 24.494929	
4.7497	 24.423429	
4.81219	 24.438345	
4.87469	 24.362178	
4.93718	 24.354084	
4.99968	 24.382731	
5.06218	 24.366255	
5.12467	 24.399810	
5.18717	 24.279318	
5.24966	 24.182354	
5.31216	 24.093505	
5.37466	 23.936254	
5.43715	 23.812535	
5.49965	 23.801435	
5.56214	 23.731030	
5.62464	 23.730498	
5.68714	 23.745356	
5.74963	 23.771757	
5.81213	 23.756186	
5.87462	 23.787918	
5.93712	 23.669298	
5.99962	 23.559500	
6.06211	 23.444455	
6.12461	 23.408356	
6.1871	 23.339055	
6.2496	 23.338309	
6.3121	 23.319714	
6.37459	 23.237982	
6.43709	 23.274140	
6.49958	 23.264714	
6.56208	 23.250529	
6.62458	 23.176532	
6.68707	 23.140747	
6.74957	 23.135066	
6.81206	 23.158223	
6.87456	 23.155033	
6.93706	 23.180340	
6.99955	 23.189716	
7.06205	 23.192725	
7.12454	 23.163247	
7.18704	 23.152191	
7.24954	 23.170233	
7.31203	 23.212499	
7.37453	 23.192488	
7.43702	 23.177671	
7.49952	 23.159400	
7.56202	 23.174907	
7.62451	 23.220158	
7.68701	 23.199247	
7.7495	 23.269071	
7.812	 23.288715	
7.8745	 23.334511	
7.93699	 23.304896	
7.99949	 23.322229	
8.06198	 23.353500	
8.12448	 23.334311	
8.18698	 23.330287	
8.24947	 23.316848	
8.31197	 23.389379	
8.37446	 23.383954	
8.43696	 23.356678	
8.49946	 23.323116	
8.56195	 23.337519	
8.62445	 23.356913	
8.68694	 23.341870	
8.74944	 23.343608	
8.81194	 23.327513	
8.87443	 23.303653	
8.93693	 23.388827	
8.99942	 23.408516	
9.06192	 23.404555	
9.12442	 23.406073	
9.18691	 23.413507	
9.24941	 23.395899	
9.3119	 23.373746	
9.3744	 23.384938	
9.4369	 23.389871	
9.49939	 23.410995	
9.56189	 23.346017	
9.62438	 23.319947	
9.68688	 23.364664	
9.74938	 23.385567	
9.81187	 23.400097	
9.87437	 23.366895	
9.93686	 23.350197	
9.99936	 23.341031	
10.0619	 23.384508	
10.1244	 23.476101	
10.1868	 23.524590	
10.2493	 23.616927	
10.3118	 23.799764	
10.3743	 23.795962	
10.4368	 23.807371	
10.4993	 23.868777	
10.5618	 23.804304	
10.6243	 23.721980	
10.6868	 23.824617	
10.7493	 23.909037	
10.8118	 28.043635	
10.8743	 28.155727	
10.9368	 28.212516	
10.9993	 31.843624	
11.0618	 31.938857	
11.1243	 31.909440	
11.1868	 31.945528	
11.2493	 32.024094	
11.3118	 32.018220	
